<svg width="114" height="18" viewBox="0 0 114 18" fill="none" xmlns="http://www.w3.org/2000/svg">
<path d="M15.9633 6.20694L11.5002 5.55831L9.50509 1.51358C9.4506 1.40284 9.36095 1.31319 9.25021 1.2587C8.97247 1.12159 8.63497 1.23585 8.49611 1.51358L6.50099 5.55831L2.0379 6.20694C1.91486 6.22452 1.80236 6.28253 1.71622 6.37042C1.61209 6.47744 1.55471 6.62143 1.55669 6.77074C1.55867 6.92006 1.61984 7.06247 1.72677 7.16671L4.95587 10.3149L4.19298 14.7605C4.17509 14.8639 4.18653 14.9702 4.22601 15.0675C4.26549 15.1647 4.33143 15.2489 4.41634 15.3106C4.50126 15.3723 4.60175 15.4089 4.70644 15.4164C4.81112 15.4239 4.9158 15.4018 5.00861 15.3528L9.0006 13.254L12.9926 15.3528C13.1016 15.4108 13.2281 15.4302 13.3494 15.4091C13.6553 15.3564 13.861 15.0663 13.8082 14.7605L13.0453 10.3149L16.2744 7.16671C16.3623 7.08057 16.4203 6.96807 16.4379 6.84503C16.4854 6.53741 16.2709 6.25264 15.9633 6.20694Z" fill="#C98A40"/>
<path d="M39.9633 6.20694L35.5002 5.55831L33.5051 1.51358C33.4506 1.40284 33.3609 1.31319 33.2502 1.2587C32.9725 1.12159 32.635 1.23585 32.4961 1.51358L30.501 5.55831L26.0379 6.20694C25.9149 6.22452 25.8024 6.28253 25.7162 6.37042C25.6121 6.47744 25.5547 6.62143 25.5567 6.77074C25.5587 6.92006 25.6198 7.06247 25.7268 7.16671L28.9559 10.3149L28.193 14.7605C28.1751 14.8639 28.1865 14.9702 28.226 15.0675C28.2655 15.1647 28.3314 15.2489 28.4163 15.3106C28.5013 15.3723 28.6018 15.4089 28.7064 15.4164C28.8111 15.4239 28.9158 15.4018 29.0086 15.3528L33.0006 13.254L36.9926 15.3528C37.1016 15.4108 37.2281 15.4302 37.3494 15.4091C37.6553 15.3564 37.861 15.0663 37.8082 14.7605L37.0453 10.3149L40.2744 7.16671C40.3623 7.08057 40.4203 6.96807 40.4379 6.84503C40.4854 6.53741 40.2709 6.25264 39.9633 6.20694Z" fill="#C98A40"/>
<path d="M63.9633 6.20694L59.5002 5.55831L57.5051 1.51358C57.4506 1.40284 57.3609 1.31319 57.2502 1.2587C56.9725 1.12159 56.635 1.23585 56.4961 1.51358L54.501 5.55831L50.0379 6.20694C49.9149 6.22452 49.8024 6.28253 49.7162 6.37042C49.6121 6.47744 49.5547 6.62143 49.5567 6.77074C49.5587 6.92006 49.6198 7.06247 49.7268 7.16671L52.9559 10.3149L52.193 14.7605C52.1751 14.8639 52.1865 14.9702 52.226 15.0675C52.2655 15.1647 52.3314 15.2489 52.4163 15.3106C52.5013 15.3723 52.6018 15.4089 52.7064 15.4164C52.8111 15.4239 52.9158 15.4018 53.0086 15.3528L57.0006 13.254L60.9926 15.3528C61.1016 15.4108 61.2281 15.4302 61.3494 15.4091C61.6553 15.3564 61.861 15.0663 61.8082 14.7605L61.0453 10.3149L64.2744 7.16671C64.3623 7.08057 64.4203 6.96807 64.4379 6.84503C64.4854 6.53741 64.2709 6.25264 63.9633 6.20694Z" fill="#C98A40"/>
<path d="M87.9633 6.20694L83.5002 5.55831L81.5051 1.51358C81.4506 1.40284 81.3609 1.31319 81.2502 1.2587C80.9725 1.12159 80.635 1.23585 80.4961 1.51358L78.501 5.55831L74.0379 6.20694C73.9149 6.22452 73.8024 6.28253 73.7162 6.37042C73.6121 6.47744 73.5547 6.62143 73.5567 6.77074C73.5587 6.92006 73.6198 7.06247 73.7268 7.16671L76.9559 10.3149L76.193 14.7605C76.1751 14.8639 76.1865 14.9702 76.226 15.0675C76.2655 15.1647 76.3314 15.2489 76.4163 15.3106C76.5013 15.3723 76.6018 15.4089 76.7064 15.4164C76.8111 15.4239 76.9158 15.4018 77.0086 15.3528L81.0006 13.254L84.9926 15.3528C85.1016 15.4108 85.2281 15.4302 85.3494 15.4091C85.6553 15.3564 85.861 15.0663 85.8082 14.7605L85.0453 10.3149L88.2744 7.16671C88.3623 7.08057 88.4203 6.96807 88.4379 6.84503C88.4854 6.53741 88.2709 6.25264 87.9633 6.20694Z" fill="#C98A40"/>
<path d="M111.963 6.20694L107.5 5.55831L105.505 1.51358C105.451 1.40284 105.361 1.31319 105.25 1.2587C104.972 1.12159 104.635 1.23585 104.496 1.51358L102.501 5.55831L98.0379 6.20694C97.9149 6.22452 97.8024 6.28253 97.7162 6.37042C97.6121 6.47744 97.5547 6.62143 97.5567 6.77074C97.5587 6.92006 97.6198 7.06247 97.7268 7.16671L100.956 10.3149L100.193 14.7605C100.175 14.8639 100.187 14.9702 100.226 15.0675C100.265 15.1647 100.331 15.2489 100.416 15.3106C100.501 15.3723 100.602 15.4089 100.706 15.4164C100.811 15.4239 100.916 15.4018 101.009 15.3528L105.001 13.254L108.993 15.3528C109.102 15.4108 109.228 15.4302 109.349 15.4091C109.655 15.3564 109.861 15.0663 109.808 14.7605L109.045 10.3149L112.274 7.16671C112.362 7.08057 112.42 6.96807 112.438 6.84503C112.485 6.53741 112.271 6.25264 111.963 6.20694Z" fill="#C98A40"/>
</svg>
